<?xml version="1.0" encoding="UTF-8" standalone="no"?>
<!-- Created with Inkscape (http://www.inkscape.org/) -->

<svg
   xmlns:dc="http://purl.org/dc/elements/1.1/"
   xmlns:cc="http://creativecommons.org/ns#"
   xmlns:rdf="http://www.w3.org/1999/02/22-rdf-syntax-ns#"
   xmlns:svg="http://www.w3.org/2000/svg"
   xmlns="http://www.w3.org/2000/svg"
   xmlns:sodipodi="http://sodipodi.sourceforge.net/DTD/sodipodi-0.dtd"
   xmlns:inkscape="http://www.inkscape.org/namespaces/inkscape"
   width="8.4667196mm"
   height="8.4666767mm"
   viewBox="0 0 8.4667196 8.4666768"
   version="1.1"
   id="svg8"
   inkscape:version="0.92.5 (2060ec1f9f, 2020-04-08)"
   sodipodi:docname="favicon.svg">
  <defs
     id="defs2" />
  <sodipodi:namedview
     id="base"
     pagecolor="#ffffff"
     bordercolor="#666666"
     borderopacity="1.0"
     inkscape:pageopacity="0.0"
     inkscape:pageshadow="2"
     inkscape:zoom="22.627417"
     inkscape:cx="26.23882"
     inkscape:cy="11.731686"
     inkscape:document-units="mm"
     inkscape:current-layer="g766"
     showgrid="false"
     inkscape:window-width="3440"
     inkscape:window-height="1380"
     inkscape:window-x="1080"
     inkscape:window-y="1440"
     inkscape:window-maximized="1" />
  <metadata
     id="metadata5">
    <rdf:RDF>
      <cc:Work
         rdf:about="">
        <dc:format>image/svg+xml</dc:format>
        <dc:type
           rdf:resource="http://purl.org/dc/dcmitype/StillImage" />
        <dc:title></dc:title>
      </cc:Work>
    </rdf:RDF>
  </metadata>
  <g
     inkscape:label="Layer 1"
     inkscape:groupmode="layer"
     id="layer1"
     transform="translate(-146.94616,-115.49233)">
    <g
       id="g766"
       transform="translate(-23.448698,-2.6458333)">
      <path
         style="fill:#163a9b;stroke-width:0.01713295"
         d="m 175.07424,126.57612 c -0.0315,-0.0174 -0.67374,-0.55908 -1.42711,-1.20386 l -1.36978,-1.17231 -0.71758,-0.006 c -0.71219,-0.006 -0.71833,-0.006 -0.81647,-0.0481 -0.11842,-0.0507 -0.24799,-0.18198 -0.30764,-0.31158 l -0.0408,-0.0886 v -1.37322 -1.37321 l 0.0408,-0.0886 c 0.0596,-0.12959 0.18922,-0.26082 0.30764,-0.31157 0.0981,-0.0421 0.10428,-0.0424 0.81647,-0.0481 l 0.71758,-0.006 1.36687,-1.16948 c 0.75177,-0.64321 1.39054,-1.18491 1.41947,-1.20379 0.10809,-0.0705 0.28248,-0.0254 0.36183,0.0936 l 0.0387,0.058 v 4.04878 4.04877 l -0.0387,0.058 c -0.0781,0.11712 -0.23529,0.16032 -0.35128,0.0965 z m -3.83624,-2.74293 c 0.006,-0.0154 0.0101,-0.3109 0.0101,-0.65664 0,-0.43991 0.005,-0.62512 0.0176,-0.61696 0.01,0.006 0.22685,0.29193 0.48258,0.63449 0.25572,0.34257 0.47658,0.63281 0.4908,0.64499 0.0381,0.0326 0.53769,0.0316 0.53016,-0.001 -0.003,-0.0128 -0.24764,-0.34418 -0.54376,-0.73642 -0.29613,-0.39225 -0.54074,-0.72822 -0.54359,-0.7466 -0.003,-0.022 0.17954,-0.28355 0.53383,-0.76329 0.29645,-0.40142 0.53503,-0.73673 0.53018,-0.74512 -0.005,-0.008 -0.11951,-0.0153 -0.2548,-0.0153 h -0.24597 l -0.0647,0.0842 c -0.0356,0.0463 -0.25362,0.34529 -0.48453,0.66446 -0.23092,0.31916 -0.42615,0.58029 -0.43385,0.58029 -0.008,0 -0.014,-0.28639 -0.014,-0.63643 0,-0.35004 -0.005,-0.64904 -0.0101,-0.66446 -0.015,-0.0418 -0.41219,-0.0418 -0.42718,0 -0.0138,0.0384 -0.0128,2.97534 9.8e-4,2.9901 0.006,0.006 0.10219,0.0118 0.21359,0.0118 0.16942,0 0.20419,-0.005 0.2126,-0.028 z m 2.3917,-0.54632 c 0.003,-0.38122 0.0104,-0.57321 0.0227,-0.58916 0.0142,-0.0183 0.0947,-0.0237 0.35681,-0.0237 0.38968,0 0.51264,-0.0212 0.68808,-0.11894 0.27272,-0.15184 0.41068,-0.42031 0.41068,-0.79918 0,-0.38768 -0.1528,-0.67376 -0.43572,-0.81578 -0.18875,-0.0948 -0.23461,-0.1 -0.87302,-0.1 h -0.5881 l -0.004,1.48839 c -0.002,0.81861 -5.8e-4,1.4986 0.004,1.51108 0.006,0.0171 0.0579,0.0215 0.21135,0.0177 l 0.20327,-0.005 z m 0.0238,-1.04268 c -0.0153,-0.0197 -0.0193,-0.14535 -0.016,-0.50255 l 0.004,-0.47624 0.32168,-0.005 c 0.36925,-0.006 0.45002,0.0103 0.55857,0.10971 0.0984,0.0901 0.14419,0.21407 0.1444,0.39124 1.9e-4,0.22971 -0.0955,0.39472 -0.26818,0.46189 -0.11077,0.0431 -0.7145,0.0599 -0.74488,0.0208 z m 3.72936,3.1773 c -0.0958,-0.0465 -0.15816,-0.15027 -0.15816,-0.26324 0,-0.11311 0.0319,-0.17454 0.17673,-0.34016 0.41474,-0.47434 0.70856,-1.08575 0.82899,-1.72505 0.0789,-0.41873 0.0851,-0.92498 0.0167,-1.34977 -0.1082,-0.67147 -0.40797,-1.31509 -0.84568,-1.8157 -0.1448,-0.16561 -0.17672,-0.22705 -0.17672,-0.34015 0,-0.20046 0.20258,-0.35071 0.37715,-0.27972 0.0637,0.0259 0.23919,0.21139 0.39374,0.41615 0.4407,0.5839 0.72521,1.27536 0.83477,2.02882 0.0416,0.28618 0.0416,0.95415 0,1.24032 -0.12529,0.8616 -0.48195,1.64737 -1.02714,2.26286 -0.17268,0.19496 -0.27608,0.2357 -0.42036,0.16564 z m -0.75215,-0.83301 c -0.10368,-0.0336 -0.18183,-0.12627 -0.20488,-0.24293 -0.0203,-0.10301 0.0165,-0.18776 0.14991,-0.34517 0.28309,-0.33394 0.47499,-0.74021 0.55535,-1.17572 0.0308,-0.16661 0.0308,-0.73705 0,-0.90366 -0.0804,-0.43551 -0.27226,-0.84178 -0.55535,-1.17571 -0.17223,-0.20317 -0.19508,-0.30896 -0.10056,-0.46557 0.0423,-0.0701 0.15624,-0.13947 0.22899,-0.13947 0.0661,0 0.16055,0.0471 0.22355,0.11164 0.1753,0.17948 0.38361,0.49103 0.51295,0.76716 0.50252,1.07282 0.36308,2.36774 -0.35375,3.28514 -0.21393,0.2738 -0.30791,0.33236 -0.45621,0.28429 z"
         id="path768"
         inkscape:connector-curvature="0" />
    </g>
  </g>
</svg>
